<?xml version="1.0" encoding="UTF-8" standalone="no"?>
<!-- Created with Inkscape (http://www.inkscape.org/) -->

<svg
   xmlns:dc="http://purl.org/dc/elements/1.1/"
   xmlns:cc="http://creativecommons.org/ns#"
   xmlns:rdf="http://www.w3.org/1999/02/22-rdf-syntax-ns#"
   xmlns:svg="http://www.w3.org/2000/svg"
   xmlns="http://www.w3.org/2000/svg"
   xmlns:xlink="http://www.w3.org/1999/xlink"
   xmlns:sodipodi="http://sodipodi.sourceforge.net/DTD/sodipodi-0.dtd"
   xmlns:inkscape="http://www.inkscape.org/namespaces/inkscape"
   width="602.31946"
   height="523.75281"
   id="svg2"
   version="1.1"
   inkscape:version="0.48.2 r9819"
   sodipodi:docname="Carrington.svg">
  <defs
     id="defs4">
    <clipPath
       id="clipEmfPath10"
       clipPathUnits="userSpaceOnUse">
      <rect
         id="rect3017"
         height="675.15002"
         width="900.15002"
         y="0"
         x="0" />
    </clipPath>
    <clipPath
       id="clipEmfPath9"
       clipPathUnits="userSpaceOnUse">
      <rect
         id="rect3014"
         height="675"
         width="900"
         y="0"
         x="0" />
    </clipPath>
    <clipPath
       id="clipEmfPath8"
       clipPathUnits="userSpaceOnUse">
      <rect
         id="rect3011"
         height="675.15002"
         width="900.15002"
         y="0"
         x="0" />
    </clipPath>
    <clipPath
       id="clipEmfPath7"
       clipPathUnits="userSpaceOnUse">
      <rect
         id="rect3008"
         height="675"
         width="900"
         y="0"
         x="0" />
    </clipPath>
    <clipPath
       id="clipEmfPath6"
       clipPathUnits="userSpaceOnUse">
      <rect
         id="rect3005"
         height="675.15002"
         width="900.15002"
         y="0"
         x="0" />
    </clipPath>
    <clipPath
       id="clipEmfPath5"
       clipPathUnits="userSpaceOnUse">
      <rect
         id="rect3002"
         height="9000"
         width="9000"
         y="-4500"
         x="-4500" />
    </clipPath>
    <clipPath
       id="clipEmfPath4"
       clipPathUnits="userSpaceOnUse">
      <rect
         id="rect2999"
         height="25.799999"
         width="52.799999"
         y="423"
         x="647.25" />
    </clipPath>
    <clipPath
       id="clipEmfPath3"
       clipPathUnits="userSpaceOnUse">
      <rect
         id="rect2996"
         height="25.35"
         width="52.349998"
         y="423"
         x="647.25" />
    </clipPath>
    <clipPath
       id="clipEmfPath2"
       clipPathUnits="userSpaceOnUse">
      <rect
         id="rect2993"
         height="675"
         width="900"
         y="0"
         x="0" />
    </clipPath>
    <clipPath
       id="clipEmfPath1"
       clipPathUnits="userSpaceOnUse">
      <rect
         id="rect2990"
         height="9000"
         width="9000"
         y="-4500"
         x="-4500" />
    </clipPath>
    <linearGradient
       inkscape:collect="always"
       xlink:href="#linearGradient23211"
       id="linearGradient23217"
       x1="343.10938"
       y1="50.890625"
       x2="405.82812"
       y2="50.890625"
       gradientUnits="userSpaceOnUse"
       gradientTransform="matrix(0,-0.78319225,0.78319225,0,334.60982,350.9706)" />
    <linearGradient
       id="linearGradient23211">
      <stop
         style="stop-color:#00ff00;stop-opacity:1;"
         offset="0"
         id="stop23213" />
      <stop
         id="stop23219"
         offset="0"
         style="stop-color:#00ff00;stop-opacity:0.49803922;" />
      <stop
         style="stop-color:#00ff00;stop-opacity:0;"
         offset="1"
         id="stop23215" />
    </linearGradient>
    <linearGradient
       y2="50.890625"
       x2="405.82812"
       y1="50.890625"
       x1="343.10938"
       gradientTransform="matrix(-0.78319225,0,0,-0.78319225,907.75628,587.87869)"
       gradientUnits="userSpaceOnUse"
       id="linearGradient5403"
       xlink:href="#linearGradient23211"
       inkscape:collect="always" />
  </defs>
  <sodipodi:namedview
     id="base"
     pagecolor="#ffffff"
     bordercolor="#666666"
     borderopacity="1.0"
     inkscape:pageopacity="0.0"
     inkscape:pageshadow="2"
     inkscape:zoom="1.2483693"
     inkscape:cx="301.15973"
     inkscape:cy="261.8764"
     inkscape:document-units="px"
     inkscape:current-layer="c3ab8d48-8a8b-43a7-a451-fb4b2f5b0650"
     showgrid="false"
     inkscape:snap-bbox="true"
     inkscape:object-nodes="true"
     inkscape:snap-global="false"
     inkscape:window-width="1280"
     inkscape:window-height="748"
     inkscape:window-x="1272"
     inkscape:window-y="224"
     inkscape:window-maximized="1"
     inkscape:snap-bbox-edge-midpoints="false"
     fit-margin-left="5"
     fit-margin-top="50"
     fit-margin-right="5"
     fit-margin-bottom="50" />
  <metadata
     id="metadata7">
    <rdf:RDF>
      <cc:Work
         rdf:about="">
        <dc:format>image/svg+xml</dc:format>
        <dc:type
           rdf:resource="http://purl.org/dc/dcmitype/StillImage" />
        <dc:title />
      </cc:Work>
    </rdf:RDF>
  </metadata>
  <g
     inkscape:groupmode="layer"
     id="c5b8c50f-6e43-4d42-946e-e106d236df5c"
     inkscape:label="Carrington"
     transform="translate(-60.012684,-285.18433)"
     style="display:inline"
     class="floor">
    <rect
       style="color:#000000;fill:#f2f2f2;fill-opacity:1;stroke:none;stroke-width:3;marker:none;visibility:visible;display:inline;overflow:visible;enable-background:accumulate"
       id="8be752ec-c78d-4d0d-9e88-aa6150ebb8a7"
       width="579.72681"
       height="419.34283"
       x="68.163452"
       y="338.09433"
       class="zone" />
    <path
       style="fill:none;stroke:#000000;stroke-width:3;stroke-linecap:round;stroke-linejoin:round;stroke-miterlimit:4;stroke-opacity:1;stroke-dasharray:none"
       d="m 655.83214,338.09432 -587.668686,0 0,419.34282 579.726796,0"
       id="path4083"
       inkscape:connector-curvature="0" />
    <g
       id="c3ab8d48-8a8b-43a7-a451-fb4b2f5b0650"
       style="stroke-width:2;stroke-miterlimit:4;stroke-dasharray:none"
       transform="translate(0,-2)"
       class="pc-desk">
      <path
         inkscape:connector-curvature="0"
         id="path4097"
         d="m 543.33524,755.62715 0,-29.4 10.95,0 18.45,-18.45 0,-55.35 29.55,0 0,103.2 z"
         style="fill:#f2f2f2;stroke:#000000;stroke-width:2;stroke-linecap:butt;stroke-linejoin:miter;stroke-miterlimit:4;stroke-opacity:1;stroke-dasharray:none" />
      <g
         id="g5195"
         style="stroke-width:2;stroke-miterlimit:4;stroke-dasharray:none">
        <path
           style="color:#000000;fill:#f2f2f2;fill-opacity:1;fill-rule:nonzero;stroke:#000000;stroke-width:2;stroke-linecap:butt;stroke-linejoin:miter;stroke-miterlimit:4;stroke-opacity:1;stroke-dasharray:none;stroke-dashoffset:0;marker:none;visibility:visible;display:inline;overflow:visible;enable-background:accumulate"
           d="m 545.50079,692.78034 c -1.96886,1.66325 -3.7385,3.53872 -5.56194,5.35562 -0.55372,0.67082 -1.21721,1.27378 -1.70255,1.98686 -0.4541,0.95051 -0.65637,2.00103 -0.58439,3.05199 -0.12717,0.80154 -0.0915,1.60026 0.0254,2.40018 0.0728,1.00562 0.23602,2.04029 0.66054,2.95262 1.9634,1.9634 3.9268,3.92679 5.8902,5.8902 -0.001,0.37561 0.50899,0.64447 0.24955,1.08567 0.1564,0.44865 -0.32832,0.72798 0.15352,1.01445 0.653,0.66573 1.28915,1.35208 2.11555,1.80634 0.55695,0.38625 1.24979,0.5066 1.85685,0.80472 1.16389,0.4614 2.45528,0.25656 3.633,-0.0268 0.54586,-0.22368 1.18226,-0.12093 1.64354,-0.54785 0.76397,-0.48063 1.5081,-0.98549 2.10012,-1.67586 2.38536,-2.39809 4.79913,-4.77296 7.16647,-7.18584 0.40012,-0.66999 0.94954,-1.28293 1.25377,-1.98955 0.0853,-0.83507 0.49756,-1.61332 0.40446,-2.47274 0.0204,-0.82566 -0.0726,-1.67065 -0.29486,-2.46073 -0.23531,-0.63568 -0.65494,-1.17712 -0.87187,-1.82222 -0.6131,-0.50746 -0.92511,-1.26177 -1.54859,-1.76072 -0.30064,-0.57961 -0.52474,-0.0521 -0.99275,-0.14847 -0.44407,0.23697 -0.67083,-0.0873 -1.0649,-0.21213 -0.60926,-0.17769 -0.93312,-0.81715 -1.41426,-1.20213 -1.57919,-1.57919 -3.15838,-3.15838 -4.73757,-4.73756 -1.03321,-0.38782 -2.13292,-0.57082 -3.21592,-0.74247 -1.74518,-0.0295 -3.51663,-0.0273 -5.16329,0.6364 z"
           id="path3247-7"
           inkscape:connector-curvature="0" />
        <path
           style="color:#000000;fill:#f2f2f2;fill-opacity:1;fill-rule:nonzero;stroke:#000000;stroke-width:2;stroke-linecap:butt;stroke-linejoin:miter;stroke-miterlimit:4;stroke-opacity:1;stroke-dasharray:none;stroke-dashoffset:0;marker:none;visibility:visible;display:inline;overflow:visible;enable-background:accumulate"
           d="m 541.68242,696.38658 c 1.06469,-1.04715 2.0968,-2.13187 3.18191,-3.15546 0.92689,-0.66151 1.78146,-1.42759 2.73871,-2.04301 0.32785,-0.20735 0.72009,-0.32935 0.97364,-0.63519 0.38774,0.0646 0.55915,-0.42394 0.53033,-0.74246 0.18955,-0.33155 0.0768,-0.68893 -0.0559,-1.01617 -0.0736,-0.25379 -0.32819,-0.42365 -0.51637,-0.58878 -0.43673,-0.18466 -0.91899,5.6e-4 -1.37747,-0.007 -0.61805,0.0626 -1.22387,0.23937 -1.82417,0.39543 -1.22924,0.39885 -2.45308,0.83151 -3.59039,1.45191 -0.55702,0.33385 -1.01728,0.81583 -1.54012,1.20338 -0.67698,0.49471 -1.27097,1.08213 -1.8533,1.68257 -0.70296,0.72092 -1.44578,1.40986 -2.12371,2.15086 -0.46307,0.68934 -0.88205,1.40365 -1.22846,2.15904 -0.24888,0.5542 -0.59536,1.07329 -0.77909,1.65091 -0.19472,0.9219 -0.45897,1.83316 -0.61022,2.76172 -0.01,0.42737 -0.11291,0.86626 -0.0646,1.28649 0.0549,0.29893 0.33105,0.48934 0.54432,0.67259 0.26904,0.0649 0.43779,0.27666 0.73578,0.19816 0.37159,0.0549 0.70019,-0.13591 0.91937,-0.42426 0.34261,-0.28195 0.57485,-0.64712 0.76753,-1.04215 0.52423,-0.90608 1.25008,-1.67784 1.8575,-2.52859 0.53234,-0.75439 1.26472,-1.3353 1.8922,-2.00718 0.47415,-0.47415 0.9483,-0.9483 1.42245,-1.42245 z"
           id="path3249-4"
           inkscape:connector-curvature="0" />
        <path
           inkscape:connector-curvature="0"
           style="color:#000000;fill:#f2f2f2;fill-opacity:1;fill-rule:nonzero;stroke:#000000;stroke-width:2;stroke-linecap:butt;stroke-linejoin:miter;stroke-miterlimit:4;stroke-opacity:1;stroke-dasharray:none;stroke-dashoffset:0;marker:none;visibility:visible;display:inline;overflow:visible;enable-background:accumulate"
           d="m 544.01587,716.75126 0.21213,-0.21213 0.21213,-0.42427 0.10607,-0.3182 -0.10607,-0.31819 0,-0.42427 -0.10606,-0.3182 -0.10607,-0.31819 -0.21213,-0.21214 -7.84889,-7.84888 -0.21213,-0.21213 -0.42426,-0.21214 -0.3182,-0.10606 -0.42426,0 -0.21214,0 -0.31819,0.10606 -0.42427,0.21214 -0.21213,0.21213 -0.3182,0.3182 -0.10606,0.31819 -0.10607,0.3182 -0.10607,0.3182 0,0.42426 0.10607,0.3182 0.3182,0.3182 0.10606,0.3182 0,0 7.84889,7.84888 0.3182,0.10607 0.21213,0.21213 0.3182,0.10607 0.42426,0 0.42427,0 0.31819,-0.10607 0.3182,-0.10606 0.3182,-0.3182 0,0 0,0"
           id="path3251-0" />
        <path
           inkscape:connector-curvature="0"
           style="color:#000000;fill:#f2f2f2;fill-opacity:1;fill-rule:nonzero;stroke:#000000;stroke-width:2;stroke-linecap:butt;stroke-linejoin:miter;stroke-miterlimit:4;stroke-opacity:1;stroke-dasharray:none;stroke-dashoffset:0;marker:none;visibility:visible;display:inline;overflow:visible;enable-background:accumulate"
           d="m 562.15316,698.61397 0.21213,-0.42426 0.21213,-0.21214 0.10607,-0.31819 0,-0.42427 0,-0.42426 -0.10607,-0.3182 -0.10606,-0.3182 -0.21214,-0.21213 0,0 -7.84888,-7.84889 -0.21213,-0.21213 -0.42427,-0.21213 -0.31819,-0.10607 -0.42427,0 -0.3182,0.10607 -0.31819,0.10607 -0.3182,0.10606 -0.3182,0.3182 -0.21213,0.21213 -0.10607,0.3182 -0.10606,0.3182 -0.10607,0.3182 0,0.42426 0.10607,0.3182 0.21213,0.42426 0.21213,0.21213 0,0 7.84888,7.84889 0.21214,0.21213 0.31819,0.10607 0.3182,0.10606 0.42427,0 0.42426,0 0.3182,-0.10606 0.21213,-0.21213 0.3182,-0.10607 0,0"
           id="path3253-9" />
      </g>
      <circle
         transform="translate(180.69194,484.83786)"
         cx="400"
         cy="250"
         r="8"
         id="circle201-1-1-9"
         sodipodi:cx="400"
         sodipodi:cy="250"
         sodipodi:rx="8"
         sodipodi:ry="8"
         style="fill:#0000ff;display:inline"
         class="pc"
         d="m 408,250 c 0,4.41828 -3.58172,8 -8,8 -4.41828,0 -8,-3.58172 -8,-8 0,-4.41828 3.58172,-8 8,-8 4.41828,0 8,3.58172 8,8 z" />
    </g>
    <g
       id="g4288"
       style="stroke-width:2;stroke-miterlimit:4;stroke-dasharray:none"
       transform="translate(0,-2)">
      <g
         id="fceb0ba1-a8ca-46e3-a2ba-32cd4ce11abe"
         style="stroke-width:2;stroke-miterlimit:4;stroke-dasharray:none"
         class="pc-desk">
        <path
           style="fill:#f2f2f2;stroke:#000000;stroke-width:2;stroke-linecap:butt;stroke-linejoin:miter;stroke-miterlimit:4;stroke-opacity:1;stroke-dasharray:none"
           d="m 479.36105,755.544 0,-29.4 -10.95,0 -18.45,-18.45 0,-55.35 -29.55,0 0,103.2 z"
           id="path4089"
           inkscape:connector-curvature="0" />
        <g
           id="g4274"
           style="stroke-width:2;stroke-miterlimit:4;stroke-dasharray:none">
          <path
             style="color:#000000;fill:#f2f2f2;fill-opacity:1;fill-rule:nonzero;stroke:#000000;stroke-width:2;stroke-linecap:butt;stroke-linejoin:miter;stroke-miterlimit:4;stroke-opacity:1;stroke-dasharray:none;stroke-dashoffset:0;marker:none;visibility:visible;display:inline;overflow:visible;enable-background:accumulate"
             d="m 483.55293,701.17747 c -1.66325,-1.96886 -3.53872,-3.7385 -5.35562,-5.56194 -0.67082,-0.55372 -1.27378,-1.21721 -1.98686,-1.70255 -0.95051,-0.4541 -2.00103,-0.65637 -3.05199,-0.58439 -0.80154,-0.12717 -1.60026,-0.0915 -2.40018,0.0254 -1.00562,0.0728 -2.04029,0.23602 -2.95262,0.66054 -1.9634,1.9634 -3.92679,3.9268 -5.8902,5.8902 -0.37561,-10e-4 -0.64447,0.50899 -1.08567,0.24955 -0.44865,0.1564 -0.72798,-0.32832 -1.01445,0.15352 -0.66573,0.653 -1.35208,1.28915 -1.80634,2.11555 -0.38625,0.55695 -0.5066,1.24979 -0.80472,1.85685 -0.4614,1.16389 -0.25656,2.45528 0.0268,3.633 0.22368,0.54586 0.12093,1.18226 0.54785,1.64354 0.48063,0.76397 0.98549,1.5081 1.67586,2.10012 2.39809,2.38536 4.77296,4.79913 7.18584,7.16647 0.66999,0.40012 1.28293,0.94954 1.98955,1.25377 0.83507,0.0853 1.61332,0.49756 2.47274,0.40446 0.82566,0.0204 1.67065,-0.0726 2.46073,-0.29486 0.63568,-0.23531 1.17712,-0.65494 1.82222,-0.87187 0.50746,-0.6131 1.26177,-0.92511 1.76072,-1.54859 0.57961,-0.30064 0.0521,-0.52474 0.14847,-0.99275 -0.23697,-0.44407 0.0873,-0.67083 0.21213,-1.0649 0.17769,-0.60926 0.81715,-0.93312 1.20213,-1.41426 1.57919,-1.57919 3.15838,-3.15838 4.73756,-4.73757 0.38782,-1.03321 0.57082,-2.13292 0.74247,-3.21592 0.0295,-1.74518 0.0274,-3.51663 -0.6364,-5.16329 z"
             id="path4938"
             inkscape:connector-curvature="0" />
          <path
             style="color:#000000;fill:#f2f2f2;fill-opacity:1;fill-rule:nonzero;stroke:#000000;stroke-width:2;stroke-linecap:butt;stroke-linejoin:miter;stroke-miterlimit:4;stroke-opacity:1;stroke-dasharray:none;stroke-dashoffset:0;marker:none;visibility:visible;display:inline;overflow:visible;enable-background:accumulate"
             d="m 479.94669,697.3591 c 1.04715,1.06469 2.13187,2.0968 3.15546,3.18191 0.66151,0.92689 1.42759,1.78146 2.04301,2.73871 0.20735,0.32785 0.32935,0.72009 0.63519,0.97364 -0.0646,0.38774 0.42394,0.55915 0.74246,0.53033 0.33155,0.18955 0.68893,0.0768 1.01617,-0.0559 0.25379,-0.0736 0.42365,-0.32819 0.58878,-0.51637 0.18466,-0.43673 -5.6e-4,-0.91899 0.007,-1.37747 -0.0626,-0.61805 -0.23937,-1.22387 -0.39543,-1.82417 -0.39885,-1.22924 -0.83151,-2.45308 -1.45191,-3.59039 -0.33385,-0.55702 -0.81583,-1.01728 -1.20338,-1.54012 -0.49471,-0.67698 -1.08213,-1.27097 -1.68257,-1.8533 -0.72092,-0.70296 -1.40986,-1.44578 -2.15086,-2.12371 -0.68934,-0.46307 -1.40365,-0.88205 -2.15904,-1.22846 -0.5542,-0.24888 -1.07329,-0.59536 -1.65091,-0.77909 -0.9219,-0.19472 -1.83316,-0.45897 -2.76172,-0.61022 -0.42737,-0.01 -0.86626,-0.11291 -1.28649,-0.0646 -0.29893,0.055 -0.48934,0.33105 -0.67259,0.54432 -0.0649,0.26904 -0.27666,0.43779 -0.19816,0.73578 -0.0549,0.37159 0.13591,0.70019 0.42426,0.91937 0.28195,0.34261 0.64712,0.57485 1.04215,0.76753 0.90608,0.52423 1.67784,1.25008 2.52859,1.8575 0.75439,0.53234 1.3353,1.26472 2.00718,1.8922 0.47415,0.47415 0.9483,0.9483 1.42245,1.42245 z"
             id="path4940"
             inkscape:connector-curvature="0" />
          <path
             inkscape:connector-curvature="0"
             style="color:#000000;fill:#f2f2f2;fill-opacity:1;fill-rule:nonzero;stroke:#000000;stroke-width:2;stroke-linecap:butt;stroke-linejoin:miter;stroke-miterlimit:4;stroke-opacity:1;stroke-dasharray:none;stroke-dashoffset:0;marker:none;visibility:visible;display:inline;overflow:visible;enable-background:accumulate"
             d="m 459.58201,699.69255 0.21213,0.21213 0.42427,0.21213 0.3182,0.10607 0.31819,-0.10607 0.42427,0 0.3182,-0.10606 0.31819,-0.10607 0.21214,-0.21213 7.84888,-7.84889 0.21213,-0.21213 0.21214,-0.42426 0.10606,-0.3182 0,-0.42426 0,-0.21214 -0.10606,-0.31819 -0.21214,-0.42427 -0.21213,-0.21213 -0.3182,-0.3182 -0.31819,-0.10606 -0.3182,-0.10607 -0.3182,-0.10607 -0.42426,0 -0.3182,0.10607 -0.3182,0.3182 -0.3182,0.10606 0,0 -7.84888,7.84889 -0.10607,0.3182 -0.21213,0.21213 -0.10607,0.3182 0,0.42426 0,0.42427 0.10607,0.31819 0.10606,0.3182 0.3182,0.3182 0,0 0,0"
             id="path4942" />
          <path
             inkscape:connector-curvature="0"
             style="color:#000000;fill:#f2f2f2;fill-opacity:1;fill-rule:nonzero;stroke:#000000;stroke-width:2;stroke-linecap:butt;stroke-linejoin:miter;stroke-miterlimit:4;stroke-opacity:1;stroke-dasharray:none;stroke-dashoffset:0;marker:none;visibility:visible;display:inline;overflow:visible;enable-background:accumulate"
             d="m 477.7193,717.82984 0.42426,0.21213 0.21214,0.21213 0.31819,0.10607 0.42427,0 0.42426,0 0.3182,-0.10607 0.3182,-0.10606 0.21213,-0.21214 0,0 7.84889,-7.84888 0.21213,-0.21213 0.21213,-0.42427 0.10607,-0.31819 0,-0.42427 -0.10607,-0.3182 -0.10607,-0.31819 -0.10606,-0.3182 -0.3182,-0.3182 -0.21213,-0.21213 -0.3182,-0.10607 -0.3182,-0.10606 -0.3182,-0.10607 -0.42426,0 -0.3182,0.10607 -0.42426,0.21213 -0.21213,0.21213 0,0 -7.84889,7.84888 -0.21213,0.21214 -0.10607,0.31819 -0.10606,0.3182 0,0.42427 0,0.42426 0.10606,0.3182 0.21213,0.21213 0.10607,0.3182 0,0"
             id="path4944" />
        </g>
        <circle
           transform="translate(42.912199,484.83786)"
           cx="400"
           cy="250"
           r="8"
           id="circle201-1-1-0"
           sodipodi:cx="400"
           sodipodi:cy="250"
           sodipodi:rx="8"
           sodipodi:ry="8"
           style="fill:#0000ff;display:inline"
           class="pc"
           d="m 408,250 c 0,4.41828 -3.58172,8 -8,8 -4.41828,0 -8,-3.58172 -8,-8 0,-4.41828 3.58172,-8 8,-8 4.41828,0 8,3.58172 8,8 z" />
      </g>
      <g
         id="cb82ddbd-5c29-4f3f-bfe5-cdaeba0944bd"
         style="stroke-width:2;stroke-miterlimit:4;stroke-dasharray:none"
         class="pc-desk">
        <path
           inkscape:connector-curvature="0"
           id="path4087"
           d="m 361.46105,755.544 0,-29.4 10.95,0 18.45,-18.45 0,-55.35 29.55,0 0,103.2 z"
           style="fill:#f2f2f2;stroke:#000000;stroke-width:2;stroke-linecap:butt;stroke-linejoin:miter;stroke-miterlimit:4;stroke-opacity:1;stroke-dasharray:none" />
        <g
           id="g5144"
           style="stroke-width:2;stroke-miterlimit:4;stroke-dasharray:none">
          <path
             inkscape:connector-curvature="0"
             id="path4948"
             d="m 365.24612,691.71818 c -1.96886,1.66325 -3.7385,3.53872 -5.56194,5.35562 -0.55372,0.67082 -1.21721,1.27378 -1.70255,1.98686 -0.4541,0.95051 -0.65637,2.00103 -0.58439,3.05199 -0.12717,0.80154 -0.0915,1.60026 0.0254,2.40018 0.0728,1.00562 0.23602,2.04029 0.66054,2.95262 1.9634,1.9634 3.9268,3.92679 5.8902,5.8902 -0.001,0.37561 0.50899,0.64447 0.24955,1.08567 0.1564,0.44865 -0.32832,0.72798 0.15352,1.01445 0.653,0.66573 1.28915,1.35208 2.11555,1.80634 0.55695,0.38625 1.24979,0.5066 1.85685,0.80472 1.16389,0.4614 2.45528,0.25656 3.633,-0.0268 0.54586,-0.22368 1.18226,-0.12093 1.64354,-0.54785 0.76397,-0.48063 1.5081,-0.98549 2.10012,-1.67586 2.38536,-2.39809 4.79913,-4.77296 7.16647,-7.18584 0.40012,-0.66999 0.94954,-1.28293 1.25377,-1.98955 0.0853,-0.83507 0.49756,-1.61332 0.40446,-2.47274 0.0204,-0.82566 -0.0726,-1.67065 -0.29486,-2.46073 -0.23531,-0.63568 -0.65494,-1.17712 -0.87187,-1.82222 -0.6131,-0.50746 -0.92511,-1.26177 -1.54859,-1.76072 -0.30064,-0.57961 -0.52474,-0.0521 -0.99275,-0.14847 -0.44407,0.23697 -0.67083,-0.0873 -1.0649,-0.21213 -0.60926,-0.17769 -0.93312,-0.81715 -1.41426,-1.20213 -1.57919,-1.57919 -3.15838,-3.15838 -4.73757,-4.73756 -1.03321,-0.38782 -2.13292,-0.57082 -3.21592,-0.74247 -1.74518,-0.0295 -3.51663,-0.0274 -5.16329,0.6364 z"
             style="color:#000000;fill:#f2f2f2;fill-opacity:1;fill-rule:nonzero;stroke:#000000;stroke-width:2;stroke-linecap:butt;stroke-linejoin:miter;stroke-miterlimit:4;stroke-opacity:1;stroke-dasharray:none;stroke-dashoffset:0;marker:none;visibility:visible;display:inline;overflow:visible;enable-background:accumulate" />
          <path
             inkscape:connector-curvature="0"
             id="path4950"
             d="m 361.42775,695.32442 c 1.06469,-1.04715 2.0968,-2.13187 3.18191,-3.15546 0.92689,-0.66151 1.78146,-1.42759 2.73871,-2.04301 0.32785,-0.20735 0.72009,-0.32935 0.97364,-0.63519 0.38774,0.0646 0.55915,-0.42394 0.53033,-0.74246 0.18955,-0.33155 0.0768,-0.68893 -0.0559,-1.01617 -0.0736,-0.25379 -0.32819,-0.42365 -0.51637,-0.58878 -0.43673,-0.18466 -0.91899,5.6e-4 -1.37747,-0.007 -0.61805,0.0626 -1.22387,0.23937 -1.82417,0.39543 -1.22924,0.39885 -2.45308,0.83151 -3.59039,1.45191 -0.55702,0.33385 -1.01728,0.81583 -1.54012,1.20338 -0.67698,0.49471 -1.27097,1.08213 -1.8533,1.68257 -0.70296,0.72092 -1.44578,1.40986 -2.12371,2.15086 -0.46307,0.68934 -0.88205,1.40365 -1.22846,2.15904 -0.24888,0.5542 -0.59536,1.07329 -0.77909,1.65091 -0.19472,0.9219 -0.45897,1.83316 -0.61022,2.76172 -0.01,0.42737 -0.11291,0.86626 -0.0646,1.28649 0.055,0.29893 0.33105,0.48934 0.54432,0.67259 0.26904,0.0649 0.43779,0.27666 0.73578,0.19816 0.37159,0.0549 0.70019,-0.13591 0.91937,-0.42426 0.34261,-0.28195 0.57485,-0.64712 0.76753,-1.04215 0.52423,-0.90608 1.25008,-1.67784 1.8575,-2.52859 0.53234,-0.75439 1.26472,-1.3353 1.8922,-2.00718 0.47415,-0.47415 0.9483,-0.9483 1.42245,-1.42245 z"
             style="color:#000000;fill:#f2f2f2;fill-opacity:1;fill-rule:nonzero;stroke:#000000;stroke-width:2;stroke-linecap:butt;stroke-linejoin:miter;stroke-miterlimit:4;stroke-opacity:1;stroke-dasharray:none;stroke-dashoffset:0;marker:none;visibility:visible;display:inline;overflow:visible;enable-background:accumulate" />
          <path
             id="path4952"
             d="m 363.7612,715.6891 0.21213,-0.21213 0.21213,-0.42427 0.10607,-0.3182 -0.10607,-0.31819 0,-0.42427 -0.10606,-0.3182 -0.10607,-0.31819 -0.21213,-0.21214 -7.84889,-7.84888 -0.21213,-0.21213 -0.42426,-0.21214 -0.3182,-0.10606 -0.42426,0 -0.21214,0 -0.31819,0.10606 -0.42427,0.21214 -0.21213,0.21213 -0.3182,0.3182 -0.10606,0.31819 -0.10607,0.3182 -0.10607,0.3182 0,0.42426 0.10607,0.3182 0.3182,0.3182 0.10606,0.3182 0,0 7.84889,7.84888 0.3182,0.10607 0.21213,0.21213 0.3182,0.10607 0.42426,0 0.42427,0 0.31819,-0.10607 0.3182,-0.10606 0.3182,-0.3182 0,0 0,0"
             style="color:#000000;fill:#f2f2f2;fill-opacity:1;fill-rule:nonzero;stroke:#000000;stroke-width:2;stroke-linecap:butt;stroke-linejoin:miter;stroke-miterlimit:4;stroke-opacity:1;stroke-dasharray:none;stroke-dashoffset:0;marker:none;visibility:visible;display:inline;overflow:visible;enable-background:accumulate"
             inkscape:connector-curvature="0" />
          <path
             id="path4954"
             d="m 381.89849,697.55181 0.21213,-0.42426 0.21213,-0.21214 0.10607,-0.31819 0,-0.42427 0,-0.42426 -0.10607,-0.3182 -0.10606,-0.3182 -0.21214,-0.21213 0,0 -7.84888,-7.84889 -0.21213,-0.21213 -0.42427,-0.21213 -0.31819,-0.10607 -0.42427,0 -0.3182,0.10607 -0.31819,0.10607 -0.3182,0.10606 -0.3182,0.3182 -0.21213,0.21213 -0.10607,0.3182 -0.10606,0.3182 -0.10607,0.3182 0,0.42426 0.10607,0.3182 0.21213,0.42426 0.21213,0.21213 0,0 7.84888,7.84889 0.21214,0.21213 0.31819,0.10607 0.3182,0.10606 0.42427,0 0.42426,0 0.3182,-0.10606 0.21213,-0.21213 0.3182,-0.10607 0,0"
             style="color:#000000;fill:#f2f2f2;fill-opacity:1;fill-rule:nonzero;stroke:#000000;stroke-width:2;stroke-linecap:butt;stroke-linejoin:miter;stroke-miterlimit:4;stroke-opacity:1;stroke-dasharray:none;stroke-dashoffset:0;marker:none;visibility:visible;display:inline;overflow:visible;enable-background:accumulate"
             inkscape:connector-curvature="0" />
        </g>
        <circle
           transform="translate(-2.7473663,484.03682)"
           cx="400"
           cy="250"
           r="8"
           id="circle201-1-1-4"
           sodipodi:cx="400"
           sodipodi:cy="250"
           sodipodi:rx="8"
           sodipodi:ry="8"
           style="fill:#0000ff;display:inline"
           class="pc"
           d="m 408,250 c 0,4.41828 -3.58172,8 -8,8 -4.41828,0 -8,-3.58172 -8,-8 0,-4.41828 3.58172,-8 8,-8 4.41828,0 8,3.58172 8,8 z" />
      </g>
    </g>
    <g
       id="94272712-59f8-4662-aab1-a058726c57ba"
       style="stroke-width:2;stroke-miterlimit:4;stroke-dasharray:none"
       class="pc-desk">
      <path
         inkscape:connector-curvature="0"
         id="path4085"
         d="m 80.053713,695.0159 29.400007,0 0,10.95 18.45,18.45 55.35,0 0,29.55 -103.200007,0 z"
         style="fill:#f2f2f2;stroke:#000000;stroke-width:2;stroke-linecap:butt;stroke-linejoin:miter;stroke-miterlimit:4;stroke-opacity:1;stroke-dasharray:none" />
      <g
         id="g4239"
         style="stroke-width:2;stroke-miterlimit:4;stroke-dasharray:none">
        <path
           inkscape:connector-curvature="0"
           id="path4958"
           d="m 143.23793,699.12883 c -1.66325,-1.96886 -3.53872,-3.7385 -5.35562,-5.56194 -0.67082,-0.55372 -1.27378,-1.21721 -1.98686,-1.70255 -0.95051,-0.4541 -2.00103,-0.65637 -3.05199,-0.58439 -0.80154,-0.12717 -1.60026,-0.0915 -2.40018,0.0254 -1.00562,0.0728 -2.04029,0.23602 -2.95262,0.66054 -1.9634,1.9634 -3.92679,3.9268 -5.8902,5.8902 -0.37561,-10e-4 -0.64447,0.50899 -1.08567,0.24955 -0.44865,0.1564 -0.72798,-0.32832 -1.01445,0.15352 -0.66573,0.653 -1.35208,1.28915 -1.80634,2.11555 -0.38625,0.55695 -0.5066,1.24979 -0.80472,1.85685 -0.4614,1.16389 -0.25656,2.45528 0.0268,3.633 0.22368,0.54586 0.12093,1.18226 0.54785,1.64354 0.48063,0.76397 0.98549,1.5081 1.67586,2.10012 2.39809,2.38536 4.77296,4.79913 7.18584,7.16647 0.66999,0.40012 1.28293,0.94954 1.98955,1.25377 0.83507,0.0853 1.61332,0.49756 2.47274,0.40446 0.82566,0.0204 1.67065,-0.0726 2.46073,-0.29486 0.63568,-0.23531 1.17712,-0.65494 1.82222,-0.87187 0.50746,-0.6131 1.26177,-0.92511 1.76072,-1.54859 0.57961,-0.30064 0.0521,-0.52474 0.14847,-0.99275 -0.23697,-0.44407 0.0873,-0.67083 0.21213,-1.0649 0.17769,-0.60926 0.81715,-0.93312 1.20213,-1.41426 1.57919,-1.57919 3.15838,-3.15838 4.73756,-4.73757 0.38782,-1.03321 0.57082,-2.13292 0.74247,-3.21592 0.0295,-1.74518 0.0273,-3.51663 -0.6364,-5.16329 z"
           style="color:#000000;fill:#f2f2f2;fill-opacity:1;fill-rule:nonzero;stroke:#000000;stroke-width:2;stroke-linecap:butt;stroke-linejoin:miter;stroke-miterlimit:4;stroke-opacity:1;stroke-dasharray:none;stroke-dashoffset:0;marker:none;visibility:visible;display:inline;overflow:visible;enable-background:accumulate" />
        <path
           inkscape:connector-curvature="0"
           id="path4960"
           d="m 139.63169,695.31046 c 1.04715,1.06469 2.13187,2.0968 3.15546,3.18191 0.66151,0.92689 1.42759,1.78146 2.04301,2.73871 0.20735,0.32785 0.32935,0.72009 0.63519,0.97364 -0.0646,0.38774 0.42394,0.55915 0.74246,0.53033 0.33155,0.18955 0.68893,0.0768 1.01617,-0.0559 0.25379,-0.0736 0.42365,-0.32819 0.58878,-0.51637 0.18466,-0.43673 -5.6e-4,-0.91899 0.007,-1.37747 -0.0626,-0.61805 -0.23937,-1.22387 -0.39543,-1.82417 -0.39885,-1.22924 -0.83151,-2.45308 -1.45191,-3.59039 -0.33385,-0.55702 -0.81583,-1.01728 -1.20338,-1.54012 -0.49471,-0.67698 -1.08213,-1.27097 -1.68257,-1.8533 -0.72092,-0.70296 -1.40986,-1.44578 -2.15086,-2.12371 -0.68934,-0.46307 -1.40365,-0.88205 -2.15904,-1.22846 -0.5542,-0.24888 -1.07329,-0.59536 -1.65091,-0.77909 -0.9219,-0.19472 -1.83316,-0.45897 -2.76172,-0.61022 -0.42737,-0.01 -0.86626,-0.11291 -1.28649,-0.0646 -0.29893,0.055 -0.48934,0.33105 -0.67259,0.54432 -0.0649,0.26904 -0.27666,0.43779 -0.19816,0.73578 -0.0549,0.37159 0.13591,0.70019 0.42426,0.91937 0.28195,0.34261 0.64712,0.57485 1.04215,0.76753 0.90608,0.52423 1.67784,1.25008 2.52859,1.8575 0.75439,0.53234 1.3353,1.26472 2.00718,1.8922 0.47415,0.47415 0.9483,0.9483 1.42245,1.42245 z"
           style="color:#000000;fill:#f2f2f2;fill-opacity:1;fill-rule:nonzero;stroke:#000000;stroke-width:2;stroke-linecap:butt;stroke-linejoin:miter;stroke-miterlimit:4;stroke-opacity:1;stroke-dasharray:none;stroke-dashoffset:0;marker:none;visibility:visible;display:inline;overflow:visible;enable-background:accumulate" />
        <path
           id="path4962"
           d="m 119.26701,697.64391 0.21213,0.21213 0.42427,0.21213 0.3182,0.10607 0.31819,-0.10607 0.42427,0 0.3182,-0.10606 0.31819,-0.10607 0.21214,-0.21213 7.84888,-7.84889 0.21213,-0.21213 0.21214,-0.42426 0.10606,-0.3182 0,-0.42426 0,-0.21214 -0.10606,-0.31819 -0.21214,-0.42427 -0.21213,-0.21213 -0.3182,-0.3182 -0.31819,-0.10606 -0.3182,-0.10607 -0.3182,-0.10607 -0.42426,0 -0.3182,0.10607 -0.3182,0.3182 -0.3182,0.10606 0,0 -7.84888,7.84889 -0.10607,0.3182 -0.21213,0.21213 -0.10607,0.3182 0,0.42426 0,0.42427 0.10607,0.31819 0.10606,0.3182 0.3182,0.3182 0,0 0,0"
           style="color:#000000;fill:#f2f2f2;fill-opacity:1;fill-rule:nonzero;stroke:#000000;stroke-width:2;stroke-linecap:butt;stroke-linejoin:miter;stroke-miterlimit:4;stroke-opacity:1;stroke-dasharray:none;stroke-dashoffset:0;marker:none;visibility:visible;display:inline;overflow:visible;enable-background:accumulate"
           inkscape:connector-curvature="0" />
        <path
           id="path4964"
           d="m 137.4043,715.7812 0.42426,0.21213 0.21214,0.21213 0.31819,0.10607 0.42427,0 0.42426,0 0.3182,-0.10607 0.3182,-0.10606 0.21213,-0.21214 0,0 7.84889,-7.84888 0.21213,-0.21213 0.21213,-0.42427 0.10607,-0.31819 0,-0.42427 -0.10607,-0.3182 -0.10607,-0.31819 -0.10606,-0.3182 -0.3182,-0.3182 -0.21213,-0.21213 -0.3182,-0.10607 -0.3182,-0.10606 -0.3182,-0.10607 -0.42426,0 -0.3182,0.10607 -0.42426,0.21213 -0.21213,0.21213 0,0 -7.84889,7.84888 -0.21213,0.21214 -0.10607,0.31819 -0.10606,0.3182 0,0.42427 0,0.42426 0.10606,0.3182 0.21213,0.21213 0.10607,0.3182 0,0"
           style="color:#000000;fill:#f2f2f2;fill-opacity:1;fill-rule:nonzero;stroke:#000000;stroke-width:2;stroke-linecap:butt;stroke-linejoin:miter;stroke-miterlimit:4;stroke-opacity:1;stroke-dasharray:none;stroke-dashoffset:0;marker:none;visibility:visible;display:inline;overflow:visible;enable-background:accumulate"
           inkscape:connector-curvature="0" />
      </g>
      <circle
         transform="translate(-295.92984,479.63368)"
         cx="400"
         cy="250"
         r="8"
         id="circle201-1-1-7"
         sodipodi:cx="400"
         sodipodi:cy="250"
         sodipodi:rx="8"
         sodipodi:ry="8"
         style="fill:#0000ff;display:inline"
         class="pc"
         d="m 408,250 c 0,4.41828 -3.58172,8 -8,8 -4.41828,0 -8,-3.58172 -8,-8 0,-4.41828 3.58172,-8 8,-8 4.41828,0 8,3.58172 8,8 z" />
    </g>
    <g
       id="g4206"
       style="stroke-width:2;stroke-miterlimit:4;stroke-dasharray:none">
      <g
         id="bedd3ced-8aa6-43ad-8488-40ba676c885f"
         style="stroke-width:2;stroke-miterlimit:4;stroke-dasharray:none"
         class="desk">
        <path
           inkscape:connector-curvature="0"
           id="path4091"
           d="m 95.73214,580.04432 29.4,0 0,-10.95 18.45,-18.45 55.35,0 0,-29.55 -103.2,0 z"
           style="fill:#f2f2f2;stroke:#000000;stroke-width:2;stroke-linecap:butt;stroke-linejoin:miter;stroke-miterlimit:4;stroke-opacity:1;stroke-dasharray:none" />
        <g
           id="g5110"
           style="stroke-width:2;stroke-miterlimit:4;stroke-dasharray:none">
          <path
             inkscape:connector-curvature="0"
             id="path4968"
             d="m 150.96314,583.38503 c 1.96886,-1.66325 3.73851,-3.53872 5.56194,-5.35562 0.55372,-0.67082 1.21721,-1.27378 1.70255,-1.98686 0.4541,-0.95051 0.65638,-2.00103 0.58439,-3.05199 0.12718,-0.80154 0.0915,-1.60026 -0.0254,-2.40018 -0.0728,-1.00562 -0.23602,-2.04029 -0.66054,-2.95262 -1.9634,-1.9634 -3.9268,-3.92679 -5.8902,-5.8902 0.001,-0.37561 -0.50899,-0.64447 -0.24955,-1.08567 -0.1564,-0.44865 0.32832,-0.72798 -0.15352,-1.01445 -0.653,-0.66573 -1.28915,-1.35208 -2.11555,-1.80634 -0.55695,-0.38625 -1.24979,-0.5066 -1.85684,-0.80472 -1.1639,-0.4614 -2.45528,-0.25656 -3.63301,0.0268 -0.54585,0.22368 -1.18226,0.12093 -1.64354,0.54785 -0.76397,0.48063 -1.50809,0.98549 -2.10012,1.67586 -2.38536,2.39809 -4.79913,4.77296 -7.16647,7.18584 -0.40012,0.66999 -0.94954,1.28293 -1.25377,1.98955 -0.0853,0.83507 -0.49756,1.61332 -0.40446,2.47274 -0.0204,0.82566 0.0726,1.67065 0.29486,2.46073 0.23531,0.63568 0.65494,1.17712 0.87187,1.82222 0.6131,0.50746 0.92511,1.26177 1.54859,1.76072 0.30064,0.57961 0.52474,0.0521 0.99275,0.14847 0.44408,-0.23697 0.67083,0.0873 1.0649,0.21213 0.60926,0.17769 0.93312,0.81715 1.41426,1.20213 1.57919,1.57919 3.15838,3.15838 4.73757,4.73756 1.03321,0.38782 2.13292,0.57082 3.21592,0.74247 1.74518,0.0295 3.51663,0.0274 5.1633,-0.6364 z"
             style="color:#000000;fill:#f2f2f2;fill-opacity:1;fill-rule:nonzero;stroke:#000000;stroke-width:2;stroke-linecap:butt;stroke-linejoin:miter;stroke-miterlimit:4;stroke-opacity:1;stroke-dasharray:none;stroke-dashoffset:0;marker:none;visibility:visible;display:inline;overflow:visible;enable-background:accumulate" />
          <path
             inkscape:connector-curvature="0"
             id="path4970"
             d="m 154.78151,579.77879 c -1.06469,1.04715 -2.09679,2.13187 -3.18191,3.15546 -0.92689,0.66151 -1.78146,1.42759 -2.73871,2.04301 -0.32785,0.20735 -0.72009,0.32935 -0.97364,0.63519 -0.38773,-0.0646 -0.55914,0.42394 -0.53033,0.74246 -0.18955,0.33155 -0.0768,0.68893 0.0559,1.01617 0.0736,0.25379 0.32819,0.42365 0.51637,0.58878 0.43673,0.18466 0.91899,-5.6e-4 1.37747,0.007 0.61805,-0.0626 1.22387,-0.23937 1.82417,-0.39543 1.22924,-0.39885 2.45308,-0.83151 3.59039,-1.45191 0.55702,-0.33385 1.01728,-0.81583 1.54012,-1.20338 0.67698,-0.49471 1.27097,-1.08213 1.8533,-1.68257 0.70296,-0.72092 1.44578,-1.40986 2.12371,-2.15086 0.46307,-0.68934 0.88205,-1.40365 1.22846,-2.15904 0.24888,-0.5542 0.59536,-1.07329 0.77909,-1.65091 0.19472,-0.9219 0.45897,-1.83316 0.61022,-2.76172 0.01,-0.42737 0.11291,-0.86626 0.0646,-1.28649 -0.0549,-0.29893 -0.33105,-0.48934 -0.54432,-0.67259 -0.26904,-0.0649 -0.43778,-0.27666 -0.73578,-0.19816 -0.37159,-0.0549 -0.70018,0.13591 -0.91937,0.42426 -0.34261,0.28195 -0.57485,0.64712 -0.76753,1.04215 -0.52423,0.90608 -1.25008,1.67784 -1.85749,2.52859 -0.53235,0.75439 -1.26473,1.3353 -1.89221,2.00718 -0.47415,0.47415 -0.9483,0.9483 -1.42245,1.42245 z"
             style="color:#000000;fill:#f2f2f2;fill-opacity:1;fill-rule:nonzero;stroke:#000000;stroke-width:2;stroke-linecap:butt;stroke-linejoin:miter;stroke-miterlimit:4;stroke-opacity:1;stroke-dasharray:none;stroke-dashoffset:0;marker:none;visibility:visible;display:inline;overflow:visible;enable-background:accumulate" />
          <path
             id="path4972"
             d="m 152.44806,559.41411 -0.21213,0.21213 -0.21213,0.42427 -0.10607,0.3182 0.10607,0.31819 0,0.42427 0.10606,0.3182 0.10607,0.31819 0.21213,0.21214 7.84889,7.84888 0.21213,0.21213 0.42426,0.21214 0.3182,0.10606 0.42426,0 0.21214,0 0.31819,-0.10606 0.42427,-0.21214 0.21213,-0.21213 0.3182,-0.3182 0.10606,-0.31819 0.10607,-0.3182 0.10607,-0.3182 0,-0.42426 -0.10607,-0.3182 -0.3182,-0.3182 -0.10606,-0.3182 0,0 -7.84889,-7.84888 -0.3182,-0.10607 -0.21213,-0.21213 -0.3182,-0.10607 -0.42426,0 -0.42426,0 -0.3182,0.10607 -0.3182,0.10606 -0.3182,0.3182 0,0 0,0"
             style="color:#000000;fill:#f2f2f2;fill-opacity:1;fill-rule:nonzero;stroke:#000000;stroke-width:2;stroke-linecap:butt;stroke-linejoin:miter;stroke-miterlimit:4;stroke-opacity:1;stroke-dasharray:none;stroke-dashoffset:0;marker:none;visibility:visible;display:inline;overflow:visible;enable-background:accumulate"
             inkscape:connector-curvature="0" />
          <path
             id="path4974"
             d="m 134.31077,577.5514 -0.21213,0.42426 -0.21213,0.21214 -0.10607,0.31819 0,0.42427 0,0.42426 0.10607,0.3182 0.10606,0.3182 0.21214,0.21213 0,0 7.84888,7.84889 0.21213,0.21213 0.42427,0.21213 0.3182,0.10607 0.42426,0 0.3182,-0.10607 0.3182,-0.10607 0.31819,-0.10606 0.3182,-0.3182 0.21213,-0.21213 0.10607,-0.3182 0.10607,-0.3182 0.10606,-0.3182 0,-0.42426 -0.10606,-0.3182 -0.21214,-0.42426 -0.21213,-0.21213 0,0 -7.84888,-7.84889 -0.21214,-0.21213 -0.31819,-0.10607 -0.3182,-0.10606 -0.42427,0 -0.42426,0 -0.3182,0.10606 -0.21213,0.21213 -0.3182,0.10607 0,0"
             style="color:#000000;fill:#f2f2f2;fill-opacity:1;fill-rule:nonzero;stroke:#000000;stroke-width:2;stroke-linecap:butt;stroke-linejoin:miter;stroke-miterlimit:4;stroke-opacity:1;stroke-dasharray:none;stroke-dashoffset:0;marker:none;visibility:visible;display:inline;overflow:visible;enable-background:accumulate"
             inkscape:connector-curvature="0" />
        </g>
      </g>
      <g
         id="3ea0e4e2-58f1-4699-9df7-474254e74238"
         style="stroke-width:2;stroke-miterlimit:4;stroke-dasharray:none"
         class="desk">
        <path
           style="fill:#f2f2f2;stroke:#000000;stroke-width:2;stroke-linecap:butt;stroke-linejoin:miter;stroke-miterlimit:4;stroke-opacity:1;stroke-dasharray:none"
           d="m 198.93214,462.14432 -29.4,0 0,10.95 -18.45,18.45 -55.35,0 0,29.55 103.2,0 z"
           id="path4093"
           inkscape:connector-curvature="0" />
        <g
           id="g5090"
           style="stroke-width:2;stroke-miterlimit:4;stroke-dasharray:none">
          <g
             id="g5082"
             style="stroke-width:2;stroke-miterlimit:4;stroke-dasharray:none">
            <path
               inkscape:connector-curvature="0"
               id="path4978"
               d="m 144.16128,457.76727 c -1.96886,1.66325 -3.7385,3.53872 -5.56194,5.35562 -0.55372,0.67082 -1.21721,1.27378 -1.70255,1.98686 -0.4541,0.95051 -0.65637,2.00103 -0.58439,3.05199 -0.12717,0.80154 -0.0915,1.60026 0.0254,2.40018 0.0728,1.00562 0.23602,2.04029 0.66054,2.95262 1.9634,1.9634 3.9268,3.92679 5.8902,5.8902 -0.001,0.37561 0.50899,0.64447 0.24955,1.08567 0.1564,0.44865 -0.32832,0.72798 0.15352,1.01445 0.653,0.66573 1.28915,1.35208 2.11555,1.80634 0.55695,0.38625 1.24979,0.5066 1.85685,0.80472 1.16389,0.4614 2.45528,0.25656 3.633,-0.0268 0.54586,-0.22368 1.18226,-0.12093 1.64354,-0.54785 0.76397,-0.48063 1.5081,-0.98549 2.10012,-1.67586 2.38536,-2.39809 4.79913,-4.77296 7.16647,-7.18584 0.40012,-0.66999 0.94954,-1.28293 1.25377,-1.98955 0.0853,-0.83507 0.49756,-1.61332 0.40446,-2.47274 0.0204,-0.82566 -0.0726,-1.67065 -0.29486,-2.46073 -0.23531,-0.63568 -0.65494,-1.17712 -0.87187,-1.82222 -0.6131,-0.50746 -0.92511,-1.26177 -1.54859,-1.76072 -0.30064,-0.57961 -0.52474,-0.0521 -0.99275,-0.14847 -0.44407,0.23697 -0.67083,-0.0873 -1.0649,-0.21213 -0.60926,-0.17769 -0.93312,-0.81715 -1.41426,-1.20213 -1.57919,-1.57919 -3.15838,-3.15838 -4.73757,-4.73756 -1.03321,-0.38782 -2.13292,-0.57082 -3.21592,-0.74247 -1.74518,-0.0295 -3.51663,-0.0274 -5.16329,0.6364 z"
               style="color:#000000;fill:#f2f2f2;fill-opacity:1;fill-rule:nonzero;stroke:#000000;stroke-width:2;stroke-linecap:butt;stroke-linejoin:miter;stroke-miterlimit:4;stroke-opacity:1;stroke-dasharray:none;stroke-dashoffset:0;marker:none;visibility:visible;display:inline;overflow:visible;enable-background:accumulate" />
          </g>
          <path
             style="color:#000000;fill:#f2f2f2;fill-opacity:1;fill-rule:nonzero;stroke:#000000;stroke-width:2;stroke-linecap:butt;stroke-linejoin:miter;stroke-miterlimit:4;stroke-opacity:1;stroke-dasharray:none;stroke-dashoffset:0;marker:none;visibility:visible;display:inline;overflow:visible;enable-background:accumulate"
             d="m 140.34291,461.37351 c 1.06469,-1.04715 2.0968,-2.13187 3.18191,-3.15546 0.92689,-0.66151 1.78146,-1.42759 2.73871,-2.04301 0.32785,-0.20735 0.72009,-0.32935 0.97364,-0.63519 0.38774,0.0646 0.55915,-0.42394 0.53033,-0.74246 0.18955,-0.33155 0.0768,-0.68893 -0.0559,-1.01617 -0.0736,-0.25379 -0.32819,-0.42365 -0.51637,-0.58878 -0.43673,-0.18466 -0.91899,5.6e-4 -1.37747,-0.007 -0.61805,0.0626 -1.22387,0.23937 -1.82417,0.39543 -1.22924,0.39885 -2.45308,0.83151 -3.59039,1.45191 -0.55702,0.33385 -1.01728,0.81583 -1.54012,1.20338 -0.67698,0.49471 -1.27097,1.08213 -1.8533,1.68257 -0.70296,0.72092 -1.44578,1.40986 -2.12371,2.15086 -0.46307,0.68934 -0.88205,1.40365 -1.22846,2.15904 -0.24888,0.5542 -0.59536,1.07329 -0.77909,1.65091 -0.19472,0.9219 -0.45897,1.83316 -0.61022,2.76172 -0.01,0.42737 -0.11291,0.86626 -0.0646,1.28649 0.0549,0.29893 0.33105,0.48934 0.54432,0.67259 0.26904,0.0649 0.43779,0.27666 0.73578,0.19816 0.37159,0.0549 0.70019,-0.13591 0.91937,-0.42426 0.34261,-0.28195 0.57485,-0.64712 0.76753,-1.04215 0.52423,-0.90608 1.25008,-1.67784 1.8575,-2.52859 0.53234,-0.75439 1.26472,-1.3353 1.8922,-2.00718 0.47415,-0.47415 0.9483,-0.9483 1.42245,-1.42245 z"
             id="path4980"
             inkscape:connector-curvature="0" />
          <path
             inkscape:connector-curvature="0"
             style="color:#000000;fill:#f2f2f2;fill-opacity:1;fill-rule:nonzero;stroke:#000000;stroke-width:2;stroke-linecap:butt;stroke-linejoin:miter;stroke-miterlimit:4;stroke-opacity:1;stroke-dasharray:none;stroke-dashoffset:0;marker:none;visibility:visible;display:inline;overflow:visible;enable-background:accumulate"
             d="m 142.67636,481.73819 0.21213,-0.21213 0.21213,-0.42427 0.10607,-0.3182 -0.10607,-0.31819 0,-0.42427 -0.10606,-0.3182 -0.10607,-0.31819 -0.21213,-0.21214 -7.84889,-7.84888 -0.21213,-0.21213 -0.42426,-0.21214 -0.3182,-0.10606 -0.42426,0 -0.21214,0 -0.31819,0.10606 -0.42427,0.21214 -0.21213,0.21213 -0.3182,0.3182 -0.10606,0.31819 -0.10607,0.3182 -0.10607,0.3182 0,0.42426 0.10607,0.3182 0.3182,0.3182 0.10606,0.3182 0,0 7.84889,7.84888 0.3182,0.10607 0.21213,0.21213 0.3182,0.10607 0.42426,0 0.42427,0 0.31819,-0.10607 0.3182,-0.10606 0.3182,-0.3182 0,0 0,0"
             id="path4982" />
          <path
             inkscape:connector-curvature="0"
             style="color:#000000;fill:#f2f2f2;fill-opacity:1;fill-rule:nonzero;stroke:#000000;stroke-width:2;stroke-linecap:butt;stroke-linejoin:miter;stroke-miterlimit:4;stroke-opacity:1;stroke-dasharray:none;stroke-dashoffset:0;marker:none;visibility:visible;display:inline;overflow:visible;enable-background:accumulate"
             d="m 160.81365,463.6009 0.21213,-0.42426 0.21213,-0.21214 0.10607,-0.31819 0,-0.42427 0,-0.42426 -0.10607,-0.3182 -0.10606,-0.3182 -0.21214,-0.21213 0,0 -7.84888,-7.84889 -0.21213,-0.21213 -0.42427,-0.21213 -0.31819,-0.10607 -0.42427,0 -0.3182,0.10607 -0.31819,0.10607 -0.3182,0.10606 -0.3182,0.3182 -0.21213,0.21213 -0.10607,0.3182 -0.10606,0.3182 -0.10607,0.3182 0,0.42426 0.10607,0.3182 0.21213,0.42426 0.21213,0.21213 0,0 7.84888,7.84889 0.21214,0.21213 0.31819,0.10607 0.3182,0.10606 0.42427,0 0.42426,0 0.3182,-0.10606 0.21213,-0.21213 0.3182,-0.10607 0,0"
             id="path4984" />
        </g>
      </g>
      <g
         id="809b364b-5fe8-4530-9511-5c3b62bd72cb"
         style="stroke-width:2;stroke-miterlimit:4;stroke-dasharray:none"
         class="desk">
        <g
           id="g5068"
           style="stroke-width:2;stroke-miterlimit:4;stroke-dasharray:none">
          <path
             sodipodi:nodetypes="cccccccc"
             style="fill:#f2f2f2;stroke:#000000;stroke-width:2;stroke-linecap:butt;stroke-linejoin:miter;stroke-miterlimit:4;stroke-opacity:1;stroke-dasharray:none"
             d="m 257.88214,550.64432 0,-29.4 -10.95,0 -18.45,-18.45 0,-40.65 -29.55,0 0,88.5 z"
             id="path4095"
             inkscape:connector-curvature="0" />
          <path
             inkscape:connector-curvature="0"
             id="path4988"
             d="m 261.39383,494.08068 c -1.66325,-1.96886 -3.53872,-3.7385 -5.35562,-5.56194 -0.67082,-0.55372 -1.27378,-1.21721 -1.98686,-1.70255 -0.95051,-0.4541 -2.00103,-0.65637 -3.05199,-0.58439 -0.80154,-0.12717 -1.60026,-0.0915 -2.40018,0.0254 -1.00562,0.0728 -2.04029,0.23602 -2.95262,0.66054 -1.9634,1.9634 -3.92679,3.9268 -5.8902,5.8902 -0.37561,-10e-4 -0.64447,0.50899 -1.08567,0.24955 -0.44865,0.1564 -0.72798,-0.32832 -1.01445,0.15352 -0.66573,0.653 -1.35208,1.28915 -1.80634,2.11555 -0.38625,0.55695 -0.5066,1.24979 -0.80472,1.85685 -0.4614,1.16389 -0.25656,2.45528 0.0268,3.633 0.22368,0.54586 0.12093,1.18226 0.54785,1.64354 0.48063,0.76397 0.98549,1.5081 1.67586,2.10012 2.39809,2.38536 4.77296,4.79913 7.18584,7.16647 0.66999,0.40012 1.28293,0.94954 1.98955,1.25377 0.83507,0.0853 1.61332,0.49756 2.47274,0.40446 0.82566,0.0204 1.67065,-0.0726 2.46073,-0.29486 0.63568,-0.23531 1.17712,-0.65494 1.82222,-0.87187 0.50746,-0.6131 1.26177,-0.92511 1.76072,-1.54859 0.57961,-0.30064 0.0521,-0.52474 0.14847,-0.99275 -0.23697,-0.44407 0.0873,-0.67083 0.21213,-1.0649 0.17769,-0.60926 0.81715,-0.93312 1.20213,-1.41426 1.57919,-1.57919 3.15838,-3.15838 4.73756,-4.73757 0.38782,-1.03321 0.57082,-2.13292 0.74247,-3.21592 0.0295,-1.74518 0.0274,-3.51663 -0.6364,-5.16329 z"
             style="color:#000000;fill:#f2f2f2;fill-opacity:1;fill-rule:nonzero;stroke:#000000;stroke-width:2;stroke-linecap:butt;stroke-linejoin:miter;stroke-miterlimit:4;stroke-opacity:1;stroke-dasharray:none;stroke-dashoffset:0;marker:none;visibility:visible;display:inline;overflow:visible;enable-background:accumulate" />
        </g>
        <g
           id="g5063"
           style="stroke-width:2;stroke-miterlimit:4;stroke-dasharray:none">
          <path
             inkscape:connector-curvature="0"
             id="path4990"
             d="m 257.78759,490.26231 c 1.04715,1.06469 2.13187,2.0968 3.15546,3.18191 0.66151,0.92689 1.42759,1.78146 2.04301,2.73871 0.20735,0.32785 0.32935,0.72009 0.63519,0.97364 -0.0646,0.38774 0.42394,0.55915 0.74246,0.53033 0.33155,0.18955 0.68893,0.0768 1.01617,-0.0559 0.25379,-0.0736 0.42365,-0.32819 0.58878,-0.51637 0.18466,-0.43673 -5.6e-4,-0.91899 0.007,-1.37747 -0.0626,-0.61805 -0.23937,-1.22387 -0.39543,-1.82417 -0.39885,-1.22924 -0.83151,-2.45308 -1.45191,-3.59039 -0.33385,-0.55702 -0.81583,-1.01728 -1.20338,-1.54012 -0.49471,-0.67698 -1.08213,-1.27097 -1.68257,-1.8533 -0.72092,-0.70296 -1.40986,-1.44578 -2.15086,-2.12371 -0.68934,-0.46307 -1.40365,-0.88205 -2.15904,-1.22846 -0.5542,-0.24888 -1.07329,-0.59536 -1.65091,-0.77909 -0.9219,-0.19472 -1.83316,-0.45897 -2.76172,-0.61022 -0.42737,-0.01 -0.86626,-0.11291 -1.28649,-0.0646 -0.29893,0.0549 -0.48934,0.33105 -0.67259,0.54432 -0.0649,0.26904 -0.27666,0.43779 -0.19816,0.73578 -0.0549,0.37159 0.13591,0.70019 0.42426,0.91937 0.28195,0.34261 0.64712,0.57485 1.04215,0.76753 0.90608,0.52423 1.67784,1.25008 2.52859,1.8575 0.75439,0.53234 1.3353,1.26472 2.00718,1.8922 0.47415,0.47415 0.9483,0.9483 1.42245,1.42245 z"
             style="color:#000000;fill:#f2f2f2;fill-opacity:1;fill-rule:nonzero;stroke:#000000;stroke-width:2;stroke-linecap:butt;stroke-linejoin:miter;stroke-miterlimit:4;stroke-opacity:1;stroke-dasharray:none;stroke-dashoffset:0;marker:none;visibility:visible;display:inline;overflow:visible;enable-background:accumulate" />
          <path
             id="path4992"
             d="m 237.42291,492.59576 0.21213,0.21213 0.42427,0.21213 0.3182,0.10607 0.31819,-0.10607 0.42427,0 0.3182,-0.10606 0.31819,-0.10607 0.21214,-0.21213 7.84888,-7.84889 0.21213,-0.21213 0.21214,-0.42426 0.10606,-0.3182 0,-0.42426 0,-0.21214 -0.10606,-0.31819 -0.21214,-0.42427 -0.21213,-0.21213 -0.3182,-0.3182 -0.31819,-0.10606 -0.3182,-0.10607 -0.3182,-0.10607 -0.42426,0 -0.3182,0.10607 -0.3182,0.3182 -0.3182,0.10606 0,0 -7.84888,7.84889 -0.10607,0.3182 -0.21213,0.21213 -0.10607,0.3182 0,0.42426 0,0.42427 0.10607,0.31819 0.10606,0.3182 0.3182,0.3182 0,0 0,0"
             style="color:#000000;fill:#f2f2f2;fill-opacity:1;fill-rule:nonzero;stroke:#000000;stroke-width:2;stroke-linecap:butt;stroke-linejoin:miter;stroke-miterlimit:4;stroke-opacity:1;stroke-dasharray:none;stroke-dashoffset:0;marker:none;visibility:visible;display:inline;overflow:visible;enable-background:accumulate"
             inkscape:connector-curvature="0" />
          <path
             id="path4994"
             d="m 255.5602,510.73305 0.42426,0.21213 0.21214,0.21213 0.31819,0.10607 0.42427,0 0.42426,0 0.3182,-0.10607 0.3182,-0.10606 0.21213,-0.21214 0,0 7.84889,-7.84888 0.21213,-0.21213 0.21213,-0.42427 0.10607,-0.31819 0,-0.42427 -0.10607,-0.3182 -0.10607,-0.31819 -0.10606,-0.3182 -0.3182,-0.3182 -0.21213,-0.21213 -0.3182,-0.10607 -0.3182,-0.10606 -0.3182,-0.10607 -0.42426,0 -0.3182,0.10607 -0.42426,0.21213 -0.21213,0.21213 0,0 -7.84889,7.84888 -0.21213,0.21214 -0.10607,0.31819 -0.10606,0.3182 0,0.42427 0,0.42426 0.10606,0.3182 0.21213,0.21213 0.10607,0.3182 0,0"
             style="color:#000000;fill:#f2f2f2;fill-opacity:1;fill-rule:nonzero;stroke:#000000;stroke-width:2;stroke-linecap:butt;stroke-linejoin:miter;stroke-miterlimit:4;stroke-opacity:1;stroke-dasharray:none;stroke-dashoffset:0;marker:none;visibility:visible;display:inline;overflow:visible;enable-background:accumulate"
             inkscape:connector-curvature="0" />
        </g>
      </g>
    </g>
    <g
       id="g3137">
      <g
         class="pc-desk"
         id="773eb610-c38a-4c6e-a471-98088f70ad5a">
        <path
           inkscape:connector-curvature="0"
           id="path4105"
           d="m 237.18214,350.24432 -50.1,0 0,58.95 20.55,0 0,-29.4 8.85,-8.85 20.7,0 z"
           style="fill:#f2f2f2;stroke:#000000;stroke-width:2;stroke-linecap:butt;stroke-linejoin:miter;stroke-miterlimit:4;stroke-opacity:1;stroke-dasharray:none" />
        <g
           id="g5042"
           style="stroke-width:2;stroke-miterlimit:4;stroke-dasharray:none">
          <path
             style="color:#000000;fill:#f2f2f2;fill-opacity:1;fill-rule:nonzero;stroke:#000000;stroke-width:2;stroke-linecap:butt;stroke-linejoin:miter;stroke-miterlimit:4;stroke-opacity:1;stroke-dasharray:none;stroke-dashoffset:0;marker:none;visibility:visible;display:inline;overflow:visible;enable-background:accumulate"
             d="m 231.52542,400.77703 c 1.96886,-1.66325 3.7385,-3.53872 5.56194,-5.35562 0.55372,-0.67082 1.21721,-1.27378 1.70255,-1.98686 0.4541,-0.95051 0.65637,-2.00103 0.58439,-3.05199 0.12717,-0.80154 0.0915,-1.60026 -0.0254,-2.40018 -0.0728,-1.00562 -0.23602,-2.04029 -0.66054,-2.95262 -1.9634,-1.9634 -3.9268,-3.92679 -5.8902,-5.8902 0.001,-0.37561 -0.50899,-0.64447 -0.24955,-1.08567 -0.1564,-0.44865 0.32832,-0.72798 -0.15352,-1.01445 -0.653,-0.66573 -1.28915,-1.35208 -2.11555,-1.80634 -0.55695,-0.38625 -1.24979,-0.5066 -1.85685,-0.80472 -1.16389,-0.4614 -2.45528,-0.25656 -3.633,0.0268 -0.54586,0.22368 -1.18226,0.12093 -1.64354,0.54785 -0.76397,0.48063 -1.5081,0.98549 -2.10012,1.67586 -2.38536,2.39809 -4.79913,4.77296 -7.16647,7.18584 -0.40012,0.66999 -0.94954,1.28293 -1.25377,1.98955 -0.0853,0.83507 -0.49756,1.61332 -0.40446,2.47274 -0.0204,0.82566 0.0726,1.67065 0.29486,2.46073 0.23531,0.63568 0.65494,1.17712 0.87187,1.82222 0.6131,0.50746 0.92511,1.26177 1.54859,1.76072 0.30064,0.57961 0.52474,0.0521 0.99275,0.14847 0.44407,-0.23697 0.67083,0.0873 1.0649,0.21213 0.60926,0.17769 0.93312,0.81715 1.41426,1.20213 1.57919,1.57919 3.15838,3.15838 4.73757,4.73756 1.03321,0.38782 2.13292,0.57082 3.21592,0.74247 1.74518,0.0295 3.51663,0.0274 5.16329,-0.6364 z"
             id="path4998"
             inkscape:connector-curvature="0" />
          <path
             style="color:#000000;fill:#f2f2f2;fill-opacity:1;fill-rule:nonzero;stroke:#000000;stroke-width:2;stroke-linecap:butt;stroke-linejoin:miter;stroke-miterlimit:4;stroke-opacity:1;stroke-dasharray:none;stroke-dashoffset:0;marker:none;visibility:visible;display:inline;overflow:visible;enable-background:accumulate"
             d="m 235.34379,397.17079 c -1.06469,1.04715 -2.0968,2.13187 -3.18191,3.15546 -0.92689,0.66151 -1.78146,1.42759 -2.73871,2.04301 -0.32785,0.20735 -0.72009,0.32935 -0.97364,0.63519 -0.38774,-0.0646 -0.55915,0.42394 -0.53033,0.74246 -0.18955,0.33155 -0.0768,0.68893 0.0559,1.01617 0.0736,0.25379 0.32819,0.42365 0.51637,0.58878 0.43673,0.18466 0.91899,-5.6e-4 1.37747,0.007 0.61805,-0.0626 1.22387,-0.23937 1.82417,-0.39543 1.22924,-0.39885 2.45308,-0.83151 3.59039,-1.45191 0.55702,-0.33385 1.01728,-0.81583 1.54012,-1.20338 0.67698,-0.49471 1.27097,-1.08213 1.8533,-1.68257 0.70296,-0.72092 1.44578,-1.40986 2.12371,-2.15086 0.46307,-0.68934 0.88205,-1.40365 1.22846,-2.15904 0.24888,-0.5542 0.59536,-1.07329 0.77909,-1.65091 0.19472,-0.9219 0.45897,-1.83316 0.61022,-2.76172 0.01,-0.42737 0.11291,-0.86626 0.0646,-1.28649 -0.0549,-0.29893 -0.33105,-0.48934 -0.54432,-0.67259 -0.26904,-0.0649 -0.43779,-0.27666 -0.73578,-0.19816 -0.37159,-0.0549 -0.70019,0.13591 -0.91937,0.42426 -0.34261,0.28195 -0.57485,0.64712 -0.76753,1.04215 -0.52423,0.90608 -1.25008,1.67784 -1.8575,2.52859 -0.53234,0.75439 -1.26472,1.3353 -1.8922,2.00718 -0.47415,0.47415 -0.9483,0.9483 -1.42245,1.42245 z"
             id="path5000"
             inkscape:connector-curvature="0" />
          <path
             inkscape:connector-curvature="0"
             style="color:#000000;fill:#f2f2f2;fill-opacity:1;fill-rule:nonzero;stroke:#000000;stroke-width:2;stroke-linecap:butt;stroke-linejoin:miter;stroke-miterlimit:4;stroke-opacity:1;stroke-dasharray:none;stroke-dashoffset:0;marker:none;visibility:visible;display:inline;overflow:visible;enable-background:accumulate"
             d="m 233.01034,376.80611 -0.21213,0.21213 -0.21213,0.42427 -0.10607,0.3182 0.10607,0.31819 0,0.42427 0.10606,0.3182 0.10607,0.31819 0.21213,0.21214 7.84889,7.84888 0.21213,0.21213 0.42426,0.21214 0.3182,0.10606 0.42426,0 0.21214,0 0.31819,-0.10606 0.42427,-0.21214 0.21213,-0.21213 0.3182,-0.3182 0.10606,-0.31819 0.10607,-0.3182 0.10607,-0.3182 0,-0.42426 -0.10607,-0.3182 -0.3182,-0.3182 -0.10606,-0.3182 0,0 -7.84889,-7.84888 -0.3182,-0.10607 -0.21213,-0.21213 -0.3182,-0.10607 -0.42426,0 -0.42427,0 -0.31819,0.10607 -0.3182,0.10606 -0.3182,0.3182 0,0 0,0"
             id="path5002" />
          <path
             inkscape:connector-curvature="0"
             style="color:#000000;fill:#f2f2f2;fill-opacity:1;fill-rule:nonzero;stroke:#000000;stroke-width:2;stroke-linecap:butt;stroke-linejoin:miter;stroke-miterlimit:4;stroke-opacity:1;stroke-dasharray:none;stroke-dashoffset:0;marker:none;visibility:visible;display:inline;overflow:visible;enable-background:accumulate"
             d="m 214.87305,394.9434 -0.21213,0.42426 -0.21213,0.21214 -0.10607,0.31819 0,0.42427 0,0.42426 0.10607,0.3182 0.10606,0.3182 0.21214,0.21213 0,0 7.84888,7.84889 0.21213,0.21213 0.42427,0.21213 0.31819,0.10607 0.42427,0 0.3182,-0.10607 0.31819,-0.10607 0.3182,-0.10606 0.3182,-0.3182 0.21213,-0.21213 0.10607,-0.3182 0.10606,-0.3182 0.10607,-0.3182 0,-0.42426 -0.10607,-0.3182 -0.21213,-0.42426 -0.21213,-0.21213 0,0 -7.84888,-7.84889 -0.21214,-0.21213 -0.31819,-0.10607 -0.3182,-0.10606 -0.42427,0 -0.42426,0 -0.3182,0.10606 -0.21213,0.21213 -0.3182,0.10607 0,0"
             id="path5004" />
        </g>
        <circle
           transform="translate(-197.97518,115.38596)"
           cx="400"
           cy="250"
           r="8"
           id="circle201-1-1-1"
           sodipodi:cx="400"
           sodipodi:cy="250"
           sodipodi:rx="8"
           sodipodi:ry="8"
           style="fill:#0000ff;display:inline"
           class="pc"
           d="m 408,250 c 0,4.41828 -3.58172,8 -8,8 -4.41828,0 -8,-3.58172 -8,-8 0,-4.41828 3.58172,-8 8,-8 4.41828,0 8,3.58172 8,8 z" />
      </g>
      <g
         class="pc-desk"
         id="cb2b2bc5-e43b-4e4e-bdfa-48f55a760875">
        <g
           style="stroke-width:2;stroke-miterlimit:4;stroke-dasharray:none"
           id="g5056">
          <path
             inkscape:connector-curvature="0"
             id="path4103"
             d="m 136.98214,350.24432 50.1,0 0,58.95 -20.55,0 0,-29.4 -8.85,-8.85 -20.7,0 z"
             style="fill:#f2f2f2;stroke:#000000;stroke-width:2;stroke-linecap:butt;stroke-linejoin:miter;stroke-miterlimit:4;stroke-opacity:1;stroke-dasharray:none" />
          <circle
             transform="translate(-227.84101,116.76029)"
             cx="400"
             cy="250"
             r="8"
             id="circle201-1-1"
             sodipodi:cx="400"
             sodipodi:cy="250"
             sodipodi:rx="8"
             sodipodi:ry="8"
             style="fill:#0000ff;display:inline"
             class="pc"
             d="m 408,250 c 0,4.41828 -3.58172,8 -8,8 -4.41828,0 -8,-3.58172 -8,-8 0,-4.41828 3.58172,-8 8,-8 4.41828,0 8,3.58172 8,8 z" />
        </g>
        <g
           style="stroke-width:2;stroke-miterlimit:4;stroke-dasharray:none"
           id="g5032">
          <path
             inkscape:connector-curvature="0"
             id="path5008"
             d="m 135.77608,393.4661 c 1.66325,1.96886 3.53872,3.7385 5.35562,5.56194 0.67082,0.55372 1.27378,1.21721 1.98686,1.70255 0.95051,0.4541 2.00103,0.65637 3.05199,0.58439 0.80154,0.12717 1.60026,0.0915 2.40018,-0.0254 1.00562,-0.0728 2.04029,-0.23602 2.95262,-0.66054 1.9634,-1.9634 3.92679,-3.9268 5.8902,-5.8902 0.37561,0.001 0.64447,-0.50899 1.08567,-0.24955 0.44865,-0.1564 0.72798,0.32832 1.01445,-0.15352 0.66573,-0.653 1.35208,-1.28915 1.80634,-2.11555 0.38625,-0.55695 0.5066,-1.24979 0.80472,-1.85685 0.4614,-1.16389 0.25656,-2.45528 -0.0268,-3.633 -0.22368,-0.54586 -0.12093,-1.18226 -0.54785,-1.64354 -0.48063,-0.76397 -0.98549,-1.5081 -1.67586,-2.10012 -2.39809,-2.38536 -4.77296,-4.79913 -7.18584,-7.16647 -0.66999,-0.40012 -1.28293,-0.94954 -1.98955,-1.25377 -0.83507,-0.0853 -1.61332,-0.49756 -2.47274,-0.40446 -0.82566,-0.0204 -1.67065,0.0726 -2.46073,0.29486 -0.63568,0.23531 -1.17712,0.65494 -1.82222,0.87187 -0.50746,0.6131 -1.26177,0.92511 -1.76072,1.54859 -0.57961,0.30064 -0.0521,0.52474 -0.14847,0.99275 0.23697,0.44407 -0.0873,0.67083 -0.21213,1.0649 -0.17769,0.60926 -0.81715,0.93312 -1.20213,1.41426 -1.57919,1.57919 -3.15838,3.15838 -4.73756,4.73757 -0.38782,1.03321 -0.57082,2.13292 -0.74247,3.21592 -0.0295,1.74518 -0.0274,3.51663 0.6364,5.16329 z"
             style="color:#000000;fill:#f2f2f2;fill-opacity:1;fill-rule:nonzero;stroke:#000000;stroke-width:2;stroke-linecap:butt;stroke-linejoin:miter;stroke-miterlimit:4;stroke-opacity:1;stroke-dasharray:none;stroke-dashoffset:0;marker:none;visibility:visible;display:inline;overflow:visible;enable-background:accumulate" />
          <path
             inkscape:connector-curvature="0"
             id="path5010"
             d="m 139.38232,397.28447 c -1.04715,-1.06469 -2.13187,-2.0968 -3.15546,-3.18191 -0.66151,-0.92689 -1.42759,-1.78146 -2.04301,-2.73871 -0.20735,-0.32785 -0.32935,-0.72009 -0.63519,-0.97364 0.0646,-0.38774 -0.42394,-0.55915 -0.74246,-0.53033 -0.33155,-0.18955 -0.68893,-0.0768 -1.01617,0.0559 -0.25379,0.0736 -0.42365,0.32819 -0.58878,0.51637 -0.18466,0.43673 5.6e-4,0.91899 -0.007,1.37747 0.0626,0.61805 0.23937,1.22387 0.39543,1.82417 0.39885,1.22924 0.83151,2.45308 1.45191,3.59039 0.33385,0.55702 0.81583,1.01728 1.20338,1.54012 0.49471,0.67698 1.08213,1.27097 1.68257,1.8533 0.72092,0.70296 1.40986,1.44578 2.15086,2.12371 0.68934,0.46307 1.40365,0.88205 2.15904,1.22846 0.5542,0.24888 1.07329,0.59536 1.65091,0.77909 0.9219,0.19472 1.83316,0.45897 2.76172,0.61022 0.42737,0.01 0.86626,0.11291 1.28649,0.0646 0.29893,-0.055 0.48934,-0.33105 0.67259,-0.54432 0.0649,-0.26904 0.27666,-0.43779 0.19816,-0.73578 0.0549,-0.37159 -0.13591,-0.70019 -0.42426,-0.91937 -0.28195,-0.34261 -0.64712,-0.57485 -1.04215,-0.76753 -0.90608,-0.52423 -1.67784,-1.25008 -2.52859,-1.8575 -0.75439,-0.53234 -1.3353,-1.26472 -2.00718,-1.8922 -0.47415,-0.47415 -0.9483,-0.9483 -1.42245,-1.42245 z"
             style="color:#000000;fill:#f2f2f2;fill-opacity:1;fill-rule:nonzero;stroke:#000000;stroke-width:2;stroke-linecap:butt;stroke-linejoin:miter;stroke-miterlimit:4;stroke-opacity:1;stroke-dasharray:none;stroke-dashoffset:0;marker:none;visibility:visible;display:inline;overflow:visible;enable-background:accumulate" />
          <path
             id="path5012"
             d="m 159.747,394.95102 -0.21213,-0.21213 -0.42427,-0.21213 -0.3182,-0.10607 -0.31819,0.10607 -0.42427,0 -0.3182,0.10606 -0.31819,0.10607 -0.21214,0.21213 -7.84888,7.84889 -0.21213,0.21213 -0.21214,0.42426 -0.10606,0.3182 0,0.42426 0,0.21214 0.10606,0.31819 0.21214,0.42427 0.21213,0.21213 0.3182,0.3182 0.31819,0.10606 0.3182,0.10607 0.3182,0.10607 0.42426,0 0.3182,-0.10607 0.3182,-0.3182 0.3182,-0.10606 0,0 7.84888,-7.84889 0.10607,-0.3182 0.21213,-0.21213 0.10607,-0.3182 0,-0.42426 0,-0.42427 -0.10607,-0.31819 -0.10606,-0.3182 -0.3182,-0.3182 0,0 0,0"
             style="color:#000000;fill:#f2f2f2;fill-opacity:1;fill-rule:nonzero;stroke:#000000;stroke-width:2;stroke-linecap:butt;stroke-linejoin:miter;stroke-miterlimit:4;stroke-opacity:1;stroke-dasharray:none;stroke-dashoffset:0;marker:none;visibility:visible;display:inline;overflow:visible;enable-background:accumulate"
             inkscape:connector-curvature="0" />
          <path
             id="path5014"
             d="m 141.60971,376.81373 -0.42426,-0.21213 -0.21214,-0.21213 -0.31819,-0.10607 -0.42427,0 -0.42426,0 -0.3182,0.10607 -0.3182,0.10606 -0.21213,0.21214 0,0 -7.84889,7.84888 -0.21213,0.21213 -0.21213,0.42427 -0.10607,0.31819 0,0.42427 0.10607,0.3182 0.10607,0.31819 0.10606,0.3182 0.3182,0.3182 0.21213,0.21213 0.3182,0.10607 0.3182,0.10606 0.3182,0.10607 0.42426,0 0.3182,-0.10607 0.42426,-0.21213 0.21213,-0.21213 0,0 7.84889,-7.84888 0.21213,-0.21214 0.10607,-0.31819 0.10606,-0.3182 0,-0.42427 0,-0.42426 -0.10606,-0.3182 -0.21213,-0.21213 -0.10607,-0.3182 0,0"
             style="color:#000000;fill:#f2f2f2;fill-opacity:1;fill-rule:nonzero;stroke:#000000;stroke-width:2;stroke-linecap:butt;stroke-linejoin:miter;stroke-miterlimit:4;stroke-opacity:1;stroke-dasharray:none;stroke-dashoffset:0;marker:none;visibility:visible;display:inline;overflow:visible;enable-background:accumulate"
             inkscape:connector-curvature="0" />
        </g>
      </g>
    </g>
    <g
       id="g3097">
      <rect
         y="338.09433"
         x="356.13214"
         height="66.300003"
         width="185.55"
         id="rect5240"
         style="color:#000000;fill:none;stroke:#000000;stroke-width:3;stroke-linecap:butt;stroke-linejoin:miter;stroke-miterlimit:4;stroke-opacity:1;stroke-dasharray:none;stroke-dashoffset:0;marker:none;visibility:visible;display:inline;overflow:visible;enable-background:accumulate" />
      <rect
         y="361.26047"
         x="538.71179"
         height="36.894405"
         width="6.0153918"
         id="rect5244"
         style="color:#000000;fill:#000000;stroke:#000000;stroke-width:1px;stroke-linecap:butt;stroke-linejoin:miter;stroke-miterlimit:4;stroke-opacity:1;stroke-dasharray:none;stroke-dashoffset:0;marker:none;visibility:visible;display:inline;overflow:visible;enable-background:accumulate"
         class="door" />
      <rect
         transform="matrix(0,1,-1,0,0,0)"
         style="color:#000000;fill:#000000;stroke:#000000;stroke-width:1px;stroke-linecap:butt;stroke-linejoin:miter;stroke-miterlimit:4;stroke-opacity:1;stroke-dasharray:none;stroke-dashoffset:0;marker:none;visibility:visible;display:inline;overflow:visible;enable-background:accumulate"
         id="rect5246"
         width="6.0153918"
         height="36.894405"
         x="335.68433"
         y="-409.77597"
         class="door" />
    </g>
    <g
       id="g3165">
      <rect
         y="-626.77911"
         x="-71.528076"
         height="36.894405"
         width="6.0153918"
         id="rect5248"
         style="color:#000000;fill:#000000;stroke:#000000;stroke-width:1px;stroke-linecap:butt;stroke-linejoin:miter;stroke-miterlimit:4;stroke-opacity:1;stroke-dasharray:none;stroke-dashoffset:0;marker:none;visibility:visible;display:inline;overflow:visible;enable-background:accumulate"
         transform="scale(-1,-1)" />
      <rect
         transform="scale(-1,-1)"
         style="color:#000000;fill:#000000;stroke:#000000;stroke-width:1px;stroke-linecap:butt;stroke-linejoin:miter;stroke-miterlimit:4;stroke-opacity:1;stroke-dasharray:none;stroke-dashoffset:0;marker:none;visibility:visible;display:inline;overflow:visible;enable-background:accumulate"
         id="rect5250"
         width="6.0153918"
         height="36.894405"
         x="-71.528076"
         y="-685.2644" />
    </g>
    <g
       id="g3160"
       class="printer">
      <rect
         y="751.15961"
         x="483.90381"
         width="25.257338"
         transform="matrix(1,0,-0.33926584,0.94069054,0,0)"
         style="font-size:12px;fill:#ffffff;fill-rule:evenodd;stroke:#333333;stroke-width:2.06208515;stroke-linejoin:round;stroke-miterlimit:4;stroke-dasharray:none"
         rx="1.976912"
         id="rect5661-5"
         height="23.068138" />
      <rect
         y="726.53009"
         x="209.62123"
         width="50.158932"
         style="font-size:12px;fill:#cccccc;fill-rule:evenodd;stroke:#333333;stroke-width:2;stroke-linejoin:round;stroke-miterlimit:4;stroke-dasharray:none"
         sodipodi:fill-cmyk="(0 0 0 0.5)"
         rx="1.976912"
         id="rect5663-5"
         height="25.968811" />
      <rect
         y="744.21277"
         x="215.31306"
         width="38.775349"
         style="font-size:12px;fill:#e6e6e6;fill-rule:evenodd;stroke:#333333;stroke-width:2;stroke-linecap:round;stroke-linejoin:round;stroke-miterlimit:4;stroke-dasharray:none"
         id="rect5666-1"
         height="8.1819544" />
    </g>
    <g
       id="g3154">
      <path
         inkscape:connector-curvature="0"
         id="path23195"
         d="m 589.91484,580.15691 23.1776,0 0,33.16329 25.94324,-64.29518 -25.94324,-66.30212 0,33.1633 -23.1776,0 0,64.27071 z"
         style="fill:url(#linearGradient5403);fill-opacity:1;stroke:none;display:inline" />
      <text
         sodipodi:linespacing="125%"
         id="text4147"
         y="543.18561"
         x="596.01691"
         style="font-size:14px;font-style:normal;font-variant:normal;font-weight:normal;font-stretch:normal;text-align:center;line-height:125%;letter-spacing:0px;word-spacing:0px;text-anchor:middle;fill:#000000;fill-opacity:1;stroke:none;font-family:Arial;-inkscape-font-specification:Arial"
         xml:space="preserve"><tspan
           y="543.18561"
           x="596.01691"
           id="tspan4149"
           sodipodi:role="line">Office</tspan><tspan
           id="tspan4151"
           y="560.68561"
           x="596.01691"
           sodipodi:role="line">reception</tspan></text>
    </g>
    <text
       xml:space="preserve"
       style="font-size:14px;font-style:normal;font-variant:normal;font-weight:normal;font-stretch:normal;text-align:center;line-height:125%;letter-spacing:0px;word-spacing:0px;text-anchor:middle;fill:#000000;fill-opacity:1;stroke:none;font-family:Arial;-inkscape-font-specification:Arial"
       x="400.53412"
       y="437.12738"
       id="text4153"
       sodipodi:linespacing="125%"><tspan
         sodipodi:role="line"
         id="tspan4155"
         x="400.53412"
         y="437.12738">Plotter</tspan></text>
    <g
       id="g3107">
      <rect
         y="416.54431"
         x="456.93213"
         height="38.700001"
         width="73.650002"
         id="rect4120"
         style="color:#000000;fill:none;stroke:#000000;stroke-width:2;stroke-linecap:butt;stroke-linejoin:miter;stroke-miterlimit:4;stroke-opacity:1;stroke-dasharray:none;stroke-dashoffset:0;marker:none;visibility:visible;display:inline;overflow:visible;enable-background:accumulate" />
      <rect
         y="493.94434"
         x="456.93213"
         height="38.700001"
         width="73.650002"
         id="rect4124"
         style="color:#000000;fill:none;stroke:#000000;stroke-width:2;stroke-linecap:butt;stroke-linejoin:miter;stroke-miterlimit:4;stroke-opacity:1;stroke-dasharray:none;stroke-dashoffset:0;marker:none;visibility:visible;display:inline;overflow:visible;enable-background:accumulate" />
      <g
         id="g3102">
        <rect
           y="455.24432"
           x="456.93213"
           height="38.700001"
           width="73.650002"
           id="rect4122"
           style="color:#000000;fill:none;stroke:#000000;stroke-width:2;stroke-linecap:butt;stroke-linejoin:miter;stroke-miterlimit:4;stroke-opacity:1;stroke-dasharray:none;stroke-dashoffset:0;marker:none;visibility:visible;display:inline;overflow:visible;enable-background:accumulate" />
        <text
           xml:space="preserve"
           style="font-size:14px;font-style:normal;font-variant:normal;font-weight:normal;font-stretch:normal;text-align:center;line-height:125%;letter-spacing:0px;word-spacing:0px;text-anchor:middle;fill:#000000;fill-opacity:1;stroke:none;font-family:Arial;-inkscape-font-specification:Arial"
           x="493.70694"
           y="480.42166"
           id="text4157"
           sodipodi:linespacing="125%"><tspan
             sodipodi:role="line"
             id="tspan4159"
             x="493.70694"
             y="480.42166">Storage</tspan></text>
      </g>
    </g>
    <text
       xml:space="preserve"
       style="font-size:14px;font-style:normal;font-variant:normal;font-weight:normal;font-stretch:normal;text-align:center;line-height:125%;letter-spacing:0px;word-spacing:0px;text-anchor:middle;fill:#000000;fill-opacity:1;stroke:none;font-family:Arial;-inkscape-font-specification:Arial"
       x="103.33481"
       y="228.16721"
       id="text3235"
       sodipodi:linespacing="125%"
       transform="translate(60.012684,285.18433)"><tspan
         sodipodi:role="line"
         id="tspan3237"
         x="103.33481"
         y="228.16721">Touchdown area</tspan></text>
  </g>
</svg>
